<svg xmlns="http://www.w3.org/2000/svg" xmlns:xlink="http://www.w3.org/1999/xlink" contentStyleType="text/css" data-diagram-type="DESCRIPTION" height="123px" preserveAspectRatio="none" style="width:201px;height:123px;background:#FFFFFF;" version="1.1" viewBox="0 0 201 123" width="201px" zoomAndPan="magnify"><defs/><g><!--entity gradeAnalysisDBAlias--><g id="elem_gradeAnalysisDBAlias"><path d="M7,17 C7,7 95.6953,7 95.6953,7 C95.6953,7 184.3906,7 184.3906,17 L184.3906,96.4375 C184.3906,106.4375 95.6953,106.4375 95.6953,106.4375 C95.6953,106.4375 7,106.4375 7,96.4375 L7,17 " fill="#438DD5" style="stroke:#3C7FC0;stroke-width:0.5;"/><path d="M7,17 C7,27 95.6953,27 95.6953,27 C95.6953,27 184.3906,27 184.3906,17 " fill="transparent" style="stroke:#3C7FC0;stroke-width:0.5;"/><text fill="#FFFFFF" font-family="sans-serif" font-size="12" font-style="italic" lengthAdjust="spacing" textLength="62.7129" x="64.3389" y="43.457">&#171;container&#187;</text><text fill="#FFFFFF" font-family="sans-serif" font-size="16" font-weight="bold" lengthAdjust="spacing" textLength="46.2422" x="17" y="62.7031">Grade</text><text fill="#FFFFFF" font-family="sans-serif" font-size="16" font-weight="bold" lengthAdjust="spacing" textLength="4.4453" x="63.2422" y="62.7031">&#160;</text><text fill="#FFFFFF" font-family="sans-serif" font-size="16" font-weight="bold" lengthAdjust="spacing" textLength="28.4453" x="67.6875" y="62.7031">and</text><text fill="#FFFFFF" font-family="sans-serif" font-size="16" font-weight="bold" lengthAdjust="spacing" textLength="4.4453" x="96.1328" y="62.7031">&#160;</text><text fill="#FFFFFF" font-family="sans-serif" font-size="16" font-weight="bold" lengthAdjust="spacing" textLength="73.8125" x="100.5781" y="62.7031">Feedback</text><text fill="#FFFFFF" font-family="sans-serif" font-size="16" font-weight="bold" lengthAdjust="spacing" textLength="65.8125" x="62.7891" y="82.8281">Analysis</text><text fill="#FFFFFF" font-family="sans-serif" font-size="12" font-style="italic" lengthAdjust="spacing" textLength="36.6797" x="77.3555" y="98.8008">[Test2]</text></g><!--SRC=[KypCIyufJKbLi74sqNSsYNVEpoj9pCnBBRBZKW02EDSbIIEzA34brJ4lCQUoEBFOnSan9pEnM4T1oHqah92ObwBWbfgQafIOdAq0KwG4b0v9BIun0Z6KD040]--></g></svg>